<?xml version="1.0" standalone="no"?>
<!DOCTYPE svg PUBLIC "-//W3C//DTD SVG 20010904//EN"
 "http://www.w3.org/TR/2001/REC-SVG-20010904/DTD/svg10.dtd">
<svg version="1.0" xmlns="http://www.w3.org/2000/svg"
 width="2048.000000pt" height="2048.000000pt" viewBox="0 0 2048.000000 2048.000000"
 preserveAspectRatio="xMidYMid meet">
<metadata>
Created by potrace 1.11, written by Peter Selinger 2001-2013
</metadata>
<g transform="translate(0.000000,2048.000000) scale(0.100000,-0.100000)"
fill="#000000" stroke="none">
<path d="M9805 19274 c-27 -2 -122 -8 -210 -14 -748 -50 -1485 -197 -2215
-440 -1145 -381 -2169 -968 -3098 -1776 -189 -164 -682 -657 -846 -846 -700
-806 -1226 -1668 -1611 -2643 -337 -853 -531 -1708 -607 -2670 -17 -227 -18
-1072 0 -1290 67 -825 200 -1491 442 -2215 384 -1150 967 -2168 1776 -3098
164 -189 657 -682 846 -846 1158 -1006 2506 -1692 3972 -2021 908 -203 1873
-265 2821 -180 1765 158 3472 853 4858 1978 445 361 973 889 1334 1334 1093
1346 1777 2987 1962 4703 40 375 46 496 46 990 0 310 -5 543 -13 645 -67 825
-200 1491 -442 2215 -384 1150 -968 2168 -1776 3098 -164 189 -657 682 -846
846 -930 808 -1948 1392 -3098 1776 -704 235 -1345 366 -2140 436 -163 14
-1021 28 -1155 18z m125 -5248 c605 -110 785 -413 574 -963 -72 -189 -265
-537 -420 -760 -126 -181 -268 -348 -438 -519 -256 -256 -352 -331 -996 -779
-228 -159 -425 -296 -437 -304 -12 -9 -23 -20 -23 -25 -1 -23 266 -387 410
-561 200 -240 581 -634 796 -822 l71 -63 75 83 c497 549 938 1252 1302 2075
224 506 345 876 431 1322 64 331 92 608 102 1013 4 166 10 250 17 252 6 2 461
11 1011 21 1052 18 1288 15 1690 -22 818 -74 1540 -277 2090 -588 751 -426
1256 -1035 1537 -1856 134 -394 203 -785 215 -1225 23 -856 -189 -1656 -602
-2275 -489 -732 -1263 -1244 -2225 -1470 -251 -59 -500 -94 -870 -122 -219
-17 -946 -17 -1160 0 -1037 80 -1889 303 -2690 703 -433 216 -774 429 -1071
667 l-129 103 -263 -193 c-309 -229 -447 -326 -657 -463 -781 -509 -1236 -724
-1678 -790 -129 -20 -364 -19 -483 1 -129 21 -320 86 -417 141 -305 172 -439
502 -403 991 51 688 298 1429 686 2053 325 524 722 923 1270 1278 l160 103 1
252 c1 260 11 396 45 595 42 251 124 532 220 760 71 165 267 546 336 648 167
251 346 412 600 541 236 120 426 170 813 216 79 9 428 -3 510 -18z m-4985
-931 l538 -885 531 885 531 885 702 0 c387 0 703 -2 703 -5 0 -3 -23 -33 -51
-67 -254 -314 -636 -1033 -798 -1501 -57 -167 -112 -380 -137 -542 -19 -117
-26 -454 -12 -570 l8 -60 -76 -44 c-265 -153 -659 -503 -944 -835 -449 -527
-847 -1240 -1058 -1896 -175 -545 -252 -1061 -239 -1600 5 -206 11 -288 30
-420 2 -13 -74 -15 -619 -18 l-621 -2 -6 102 c-8 127 7 505 28 716 115 1163
523 2337 1109 3192 l72 105 -928 1715 c-510 943 -927 1718 -928 1723 0 4 366
7 813 7 l813 0 539 -885z"/>
<path d="M9273 13361 c-148 -51 -285 -142 -511 -336 -356 -306 -602 -726 -676
-1155 -20 -112 -33 -380 -20 -380 16 0 222 118 328 187 139 93 308 221 456
348 448 384 666 651 750 920 31 97 38 245 16 312 -18 53 -64 105 -109 122 -52
20 -146 13 -234 -18z"/>
<path d="M13355 12780 c-55 -4 -188 -13 -295 -19 -219 -13 -344 -26 -387 -42
-27 -9 -35 -23 -78 -137 -227 -604 -598 -1318 -959 -1847 -239 -350 -317 -460
-412 -586 -228 -302 -550 -693 -909 -1102 -202 -231 -216 -250 -199 -262 486
-362 922 -607 1364 -765 585 -209 1174 -338 1850 -407 218 -22 768 -25 930 -5
379 47 673 129 966 273 690 336 1192 1005 1343 1789 93 484 69 971 -70 1406
-128 399 -319 715 -601 990 -133 130 -216 198 -354 287 -369 242 -814 379
-1379 427 -135 11 -657 11 -810 0z"/>
<path d="M17655 10388 c-241 -184 -646 -482 -882 -648 -161 -115 -161 -115
-174 -165 -124 -515 -366 -947 -727 -1297 -190 -185 -425 -349 -646 -453 l-89
-42 54 -7 c57 -7 721 -7 874 0 379 17 1113 115 1141 152 51 66 177 264 231
362 298 545 453 1194 453 1899 0 203 -8 362 -19 360 -3 0 -100 -73 -216 -161z"/>
<path d="M7455 10161 c-212 -162 -407 -365 -605 -631 -379 -510 -534 -864
-532 -1215 1 -216 67 -392 196 -521 121 -121 222 -159 421 -158 140 1 212 14
366 63 122 39 364 160 503 251 221 144 766 577 766 607 0 7 -15 34 -34 60 -18
27 -121 172 -228 323 -411 582 -577 859 -707 1185 -22 55 -44 101 -48 102 -4
1 -48 -29 -98 -66z"/>
<path d="M8525 8719 c5 -8 28 -42 52 -75 24 -34 43 -73 43 -87 0 -40 -130
-153 -515 -448 -260 -199 -372 -271 -578 -369 -269 -128 -529 -180 -727 -146
-135 24 -224 69 -314 160 -155 156 -222 348 -214 609 2 75 -1 116 -7 113 -5
-2 -108 -45 -227 -95 -120 -49 -310 -127 -422 -171 l-205 -81 -10 -52 c-58
-294 -82 -603 -62 -788 15 -140 42 -233 98 -349 61 -124 168 -234 288 -297
322 -169 727 -193 1140 -68 503 152 1175 546 2105 1233 113 84 213 152 222
152 10 0 68 -42 130 -93 283 -232 630 -451 1059 -667 382 -193 740 -332 1158
-451 l144 -41 36 19 c20 11 145 78 278 149 134 71 243 132 243 135 0 3 -66 30
-147 58 -532 190 -1214 474 -1808 752 -501 234 -1264 627 -1714 882 -30 17
-50 24 -46 16z"/>
<path d="M4727 10925 c-114 -19 -212 -35 -217 -37 -5 -2 31 -77 80 -168 50
-91 90 -175 90 -187 0 -12 -26 -60 -58 -105 -503 -724 -882 -1691 -1052 -2687
-11 -68 -19 -125 -17 -128 10 -9 567 154 904 265 l238 78 46 184 c189 751 557
1487 1062 2123 39 49 66 92 61 96 -35 32 -893 596 -909 598 -11 0 -114 -14
-228 -32z"/>
</g>
</svg>
