<?xml version="1.0" encoding="utf-8"?>
<!-- Generator: Adobe Illustrator 19.1.0, SVG Export Plug-In . SVG Version: 6.00 Build 0)  -->
<svg version="1.1" id="Ebene_1" xmlns="http://www.w3.org/2000/svg" xmlns:xlink="http://www.w3.org/1999/xlink" x="0px" y="0px"
	 width="35px" height="35px" viewBox="0 0 2000 2000" style="enable-background:new 0 0 300 300;" xml:space="preserve">
<style type="text/css">
	.st0{fill:#0689B3;stroke:#3FAF6C;stroke-width:96.3765;}
	.st1{fill:#D9E021;stroke:#FFFFFF;stroke-width:4;stroke-miterlimit:10;}
	.st2{fill:#8CC63F;stroke:#FFFFFF;stroke-width:4;stroke-miterlimit:10;}
	.st3{fill:#009245;stroke:#FFFFFF;stroke-width:4;stroke-miterlimit:10;}
	.st4{fill:#39B54A;stroke:#FFFFFF;stroke-width:4;stroke-miterlimit:10;}
</style>
<circle class="st0" cx="999.4" cy="1000.4" r="950"/>
<path class="st1" d="M1314.5,608.2l-180.1,3.2c-0.8,0-1.6,0.1-2.4,0.2c0,0,0,69.1-8.2,114.5c-2.4,13.5-4.9,26.8-8.2,41.4
	c137.6-41.7,273.9-88.1,409-137.2C1456.3,612.4,1383.7,607.2,1314.5,608.2z"/>
<path class="st2" d="M1262.3,743.6c1.8-5,48.9-6.1,55.2-6.7c38.9-3.2,78.9-4.5,118.1-0.2c16.2-8.5,32.4-16.8,48.5-25
	c39.8-20.8,81.4-38,124.3-51.2c-26.8-12.7-55-22.6-84-30.2c-135.1,49.2-271.4,95.6-409,137.2c-7.9,34.4-21.3,76-54.5,145.6
	c-7,14.7-14.6,29.2-22.5,43.5c58-32.4,115.5-65,172.6-97.1C1230.7,822.1,1247.9,783.4,1262.3,743.6z"/>
<path class="st2" d="M1143.2,969.6c25.1-35.1,47.8-71.9,67.9-110.1c-57.1,32.1-114.6,64.7-172.6,97.1
	c-11.4,20.7-23.6,41.1-36.5,60.8c-8.2,12.6-16.9,24.8-26,36.7c21.6,15.5,43.6,30.6,66.1,45.2C1075,1061,1117.9,1008.8,1143.2,969.6z
	"/>
<path class="st3" d="M1741,1248.2c17.7-23.3,32.3-48.8,43.4-75.9c13.1-32,22.1-65.6,26.8-99.8c4.7-32.9,5.9-66.2,3.5-99.4
	c-0.3-4.4-0.7-8.9-1.2-13.3c-46.4,35.6-93.2,70-140.4,103.4c-0.2,1.2-0.4,2.3-0.7,3.5c-10.5,48.6-34.4,94.2-69,130
	c-30,31.1-64.7,51.7-102.2,64.5C1581.5,1267.5,1662.1,1263.2,1741,1248.2z"/>
<path class="st4" d="M1673.2,1063.2c47.2-33.3,94-67.8,140.4-103.4c-8.1-78.7-38.6-158.9-92.5-217.4
	c-32.6-35.4-70.9-62.1-112.6-81.9c-42.9,13.3-84.5,30.4-124.3,51.2c-16.1,8.2-32.3,16.5-48.5,25c31.8,3.4,63.1,10.5,92.7,23.1
	C1649.3,811.3,1698.2,940.4,1673.2,1063.2z"/>
<path class="st2" d="M1163.1,1374.5c92.1,23.5,190.2,29.7,283.3,21.7c-72.6-14.9-143.9-34.8-213.9-58.9
	C1209.5,1349.8,1186.4,1362.3,1163.1,1374.5z"/>
<path class="st2" d="M1741,1248.2c-78.9,14.9-159.5,19.3-239.6,13c-1.6,0.6-3.3,1.2-5,1.7c-42.1,13.5-87.7,17.3-134.2,14.9
	c-7.1-0.4-14.2-0.9-21.3-1.5c-35.9,20.9-72,41.2-108.4,61c70,24.1,141.3,44,213.9,58.9c4.5-0.4,9-0.8,13.5-1.2
	C1571.6,1383.6,1675.2,1334.9,1741,1248.2z"/>
<path class="st3" d="M838.6,1176.4c2,2.9-69.4,56.8-74.5,60.2c-15.3,10.2-31.9,19.9-49.4,26.8c-13.4,5.3-27.3,9-41.5,10.2
	c-12.1,1-24.6-0.1-35.6-5.3c-11.7-5.6-20.9-15.6-26.9-27.1c-7.7-14.9-10.3-32.2-8.9-48.9c0.4-5,1.1-9.9,2.2-14.8
	c-33.3,14.4-66.7,28-100.3,40.9c-3.9,17.5-6.6,35.2-8.1,53.1c-1.4,17.1-1.7,34.4,1.8,51.2c3.4,16.8,10.8,33.1,23,45.1
	c13,12.8,30.6,19.9,48.2,24.5c74.7,19.4,152.5-26.3,213.5-64.5c27.3-17.1,54.3-35.1,80.1-54.4c8.1-6.1,40.4-29.8,40.4-29.8
	s18,15.8,36.2,28.5c32.1,22.4,62,39.2,97.2,56.4c40.2,19.6,83,34.9,127.2,46.2c23.2-12.2,46.4-24.6,69.4-37.3
	c-143.7-49.5-282.1-116.4-416.2-192.5C823.7,1155.1,831.2,1165.5,838.6,1176.4z"/>
<path class="st1" d="M1253.3,1264.2c-39.8-7.8-78.6-19-116.7-32.5c-37.1-13.2-79.5-36.9-111.9-59.4c-12-8.4-16.9-11.7-28.5-20.7
	c0,0,19.8-21.7,45.8-52.1c-22.5-14.6-44.5-29.7-66.1-45.2c-11.9,15.8-24.6,31-38,45.5c-0.4,0.4-6.8,7.4-7,7.2
	c-21.7-18.9-42-38.5-60.9-58.5c-29.6,15.6-59.3,30.9-89.1,45.9c11.2,16.8,23.2,33.4,35.3,50.4c134,76.1,272.4,143,416.2,192.5
	c36.3-19.8,72.5-40.2,108.4-61C1311.5,1273.9,1282.3,1269.8,1253.3,1264.2z"/>
<path class="st2" d="M717.9,851.9c-0.7,6.9-1.2,13.9-1.5,20.9c7.2-1.6,14.5-3.2,21.7-4.9C731.4,862.6,724.7,857.2,717.9,851.9z"/>
<path class="st2" d="M523.6,1151.1c-8.2,21.9-14.9,44.4-20,67.3c33.5-12.8,67-26.4,100.3-40.9c2.5-11.6,6.2-22.8,11.1-33.6
	c12.6-28.5,30.8-53.9,49.7-78.6c2-2.6,4.1-5.1,6.1-7.7c-23-14.4-45.9-28.9-68.7-43.7C568.1,1054.6,542,1101.6,523.6,1151.1z"/>
<path class="st2" d="M727.4,1004.1l4.5-3.2c12.6,34.8,29.9,64.6,49.2,93.5c29.8-15,59.5-30.3,89.1-45.9
	c-27.9-29.7-52.7-60.8-73.6-93.2c-0.1-0.1,12.3-8.9,26.6-18.9c-28.2-22.7-56.6-45.5-85.2-68.3c-7.2,1.6-14.5,3.2-21.7,4.9
	c-0.8,15.2-0.6,30.3,0.4,45.5c0,0-14.1,9.3-16.5,10.8c-7.2,4.5-14.3,9.1-21.2,13.9c-13.8,9.7-27,20.3-39.6,31.7
	c-13.5,12.2-26.1,25.4-37.7,39.4c22.8,14.7,45.7,29.3,68.7,43.7C687.1,1037.4,706.1,1019.2,727.4,1004.1z"/>
<path class="st1" d="M783.8,857.4c0.1-4.7,0.4-9.3,0.8-13.9c3.3-32.6,15.6-64,34.3-91c11.7-16.9,25.6-32.1,41.4-45.3
	c11.7-9.7,23.5-19.5,37-26.7c11.5-6.1,29.6-13.7,41.9-5.7c8.5,5.5,10.7,17,9.8,27.1c-3.6,39.5-36.8,72.6-64.4,97.8
	c-18.6,17-38.1,33.2-58.9,47.5c51.3-12.6,102.4-26,153.4-40.1c15-18.9,28.5-39.1,40.3-60.2c3.6-6.5,7.1-13,10.3-19.6
	c13.3-26.7,28.7-63.8,9.5-91.4c-8.2-11.7-21.5-18.8-35-23.4c-26.7-9.1-55.7-10.1-83.8-7.3c-46.6,4.5-91.8,20.4-124,55.6
	c-14.8,16.2-26.3,35.2-35.4,55.1c-23.7,43.1-38,88.5-43.1,136c6.8,5.3,13.4,10.7,20.1,16C753.3,864.5,768.6,860.9,783.8,857.4z"/>
<path class="st4" d="M865.3,907c31.4-21.3,62.1-43.7,88.5-71c8.9-9.2,17.3-18.9,25.2-28.9c-51,14.1-102.1,27.5-153.4,40.1
	c-6.5,4.4-13,8.7-19.7,12.7c-5.7,3.4-11.4,6.6-17.3,9.7c-1.6,0.8-4.9,2.4-4.9,2.4s-0.1-12.6-0.1-14.1c0-0.2,0-0.4,0-0.6
	c-15.2,3.6-30.5,7.1-45.7,10.6c28.6,22.8,57,45.5,85.2,68.3C841,923.8,861.7,909.4,865.3,907z"/>
<path class="st2" d="M307.4,1282c-5.7,39.9-8.1,79.5-6.7,117.1h129.4c0,0-12.6-64.1,6.6-156.5C393.9,1257.4,350.7,1270.5,307.4,1282
	z"/>
<path class="st2" d="M405.1,929.9c19-2.7,37.9-5.7,56.8-8.7c-32.8-22.2-65.4-44.5-97.7-66.9L405.1,929.9z"/>
<path class="st1" d="M671.9,816.3c-30.3-23-61.4-45.7-93.7-67.6c-8.3-5.4-16.6-10.7-24.9-16L515,796.5l-79.2-130.2
	c-37.5-19.3-75.3-37.4-113.1-54.7H233l131.2,242.7c32.3,22.3,64.9,44.6,97.7,66.9c68.7-10.9,137.1-23.5,205.2-37.8
	C665.9,870,665.6,847.1,671.9,816.3z"/>
<path class="st3" d="M405.1,929.9l22.1,40.8c-60.9,83.2-103.7,198.6-119.7,311.3c43.3-11.3,86.4-24.5,129.4-39.3
	c9.8-46.8,25.7-92.1,47.3-134.8c25.1-49.6,52.5-88.9,78.4-119.4c-33.8-22.2-67.4-44.6-100.7-67.2C443,924.2,424,927.1,405.1,929.9z"
	/>
<path class="st2" d="M669.1,896.7c-1-4.4-1.6-8.8-2-13.3c-68.1,14.3-136.5,26.9-205.2,37.8c33.3,22.6,66.9,45,100.7,67.2
	C619.6,921.4,669.1,896.7,669.1,896.7z"/>
<path class="st2" d="M402.5,611.6h-79.8c37.8,17.4,75.6,35.4,113.1,54.7L402.5,611.6z"/>
<path class="st2" d="M671.9,816.3c4.4-21.5,12-46.8,24.9-75.3c43.1-95.5,75.5-129.4,75.5-129.4H625.9l-72.7,121.2
	c8.3,5.2,16.7,10.5,24.9,16C610.5,770.7,641.6,793.3,671.9,816.3z"/>
</svg>
